<?xml version="1.0" encoding="UTF-8"?>
<svg width="800" height="600" viewBox="0 0 800 600" fill="none" xmlns="http://www.w3.org/2000/svg">
  <rect width="800" height="600" fill="#F8FAFC"/>
  <rect x="40" y="40" width="720" height="520" rx="12" fill="white" stroke="#E2E8F0"/>
  
  <!-- Sidebar -->
  <rect x="40" y="40" width="240" height="520" fill="#F1F5F9"/>
  <rect x="60" y="80" width="200" height="40" rx="8" fill="#4F46E5"/>
  <rect x="60" y="140" width="200" height="32" rx="6" fill="white"/>
  <rect x="60" y="182" width="200" height="32" rx="6" fill="white"/>
  
  <!-- Main Content -->
  <rect x="320" y="80" width="400" height="40" rx="8" fill="#EEF2FF"/>
  <rect x="320" y="140" width="400" height="32" rx="6" fill="#F1F5F9"/>
  <rect x="320" y="182" width="400" height="32" rx="6" fill="#F1F5F9"/>
  <rect x="320" y="224" width="400" height="32" rx="6" fill="#F1F5F9"/>
  
  <!-- Progress Circles -->
  <circle cx="720" cy="156" r="12" stroke="#4F46E5" stroke-width="2"/>
  <circle cx="720" cy="156" r="8" fill="#4F46E5"/>
  <circle cx="720" cy="198" r="12" stroke="#4F46E5" stroke-width="2"/>
  <circle cx="720" cy="240" r="12" stroke="#E2E8F0" stroke-width="2"/>
</svg> 